<svg xmlns="http://www.w3.org/2000/svg" version="1.1" width="131px" height="29px" viewBox="0 0 2903 607" style="shape-rendering:geometricPrecision; text-rendering:geometricPrecision; image-rendering:optimizeQuality; fill-rule:evenodd; clip-rule:evenodd" xmlns:xlink="http://www.w3.org/1999/xlink">
<g><path style="opacity:0.996" fill="#ec018b" d="M 166.5,-0.5 C 272.833,-0.5 379.167,-0.5 485.5,-0.5C 532.298,6.4805 567.465,30.4805 591,71.5C 600.865,90.6277 606.199,110.961 607,132.5C 607.5,235.166 607.667,337.833 607.5,440.5C 539.833,440.5 472.167,440.5 404.5,440.5C 404.5,440.167 404.5,439.833 404.5,439.5C 404.5,439.167 404.5,438.833 404.5,438.5C 404.5,359.5 404.5,280.5 404.5,201.5C 325.5,201.5 246.5,201.5 167.5,201.5C 167.167,201.5 166.833,201.5 166.5,201.5C 166.5,134.167 166.5,66.8333 166.5,-0.5 Z"/></g>
<g><path style="opacity:0.98" fill="#000000" d="M 771.5,75.5 C 791.5,75.5 811.5,75.5 831.5,75.5C 831.5,203.833 831.5,332.167 831.5,460.5C 811.5,460.5 791.5,460.5 771.5,460.5C 771.5,332.167 771.5,203.833 771.5,75.5 Z"/></g>
<g><path style="opacity:0.974" fill="#fef203" d="M 2349.5,86.5 C 2375.85,84.0291 2390.18,95.8624 2392.5,122C 2392.54,138.589 2384.88,149.923 2369.5,156C 2347.86,161.098 2332.7,153.598 2324,133.5C 2319,110.145 2327.5,94.4782 2349.5,86.5 Z"/></g>
<g><path style="opacity:0.992" fill="#000000" d="M 2902.5,203.5 C 2902.5,221.5 2902.5,239.5 2902.5,257.5C 2881.83,257.5 2861.17,257.5 2840.5,257.5C 2840.5,325.167 2840.5,392.833 2840.5,460.5C 2820.83,460.5 2801.17,460.5 2781.5,460.5C 2781.5,392.833 2781.5,325.167 2781.5,257.5C 2760.83,257.5 2740.17,257.5 2719.5,257.5C 2719.5,239.5 2719.5,221.5 2719.5,203.5C 2740.17,203.5 2760.83,203.5 2781.5,203.5C 2781.5,167.833 2781.5,132.167 2781.5,96.5C 2801.17,96.5 2820.83,96.5 2840.5,96.5C 2840.5,132.167 2840.5,167.833 2840.5,203.5C 2861.17,203.5 2881.83,203.5 2902.5,203.5 Z"/></g>
<g><path style="opacity:0.984" fill="#000000" d="M 995.5,198.5 C 1052.56,193.617 1097.06,214.617 1129,261.5C 1147.24,293.827 1152.24,328.161 1144,364.5C 1127.8,420.032 1091.3,453.199 1034.5,464C 975.43,470.706 929.597,449.539 897,400.5C 876.245,361.856 873.245,321.856 888,280.5C 909.433,234.209 945.267,206.876 995.5,198.5 Z M 1004.5,255.5 C 1043.17,253.568 1069.34,270.568 1083,306.5C 1090.14,332.535 1086.47,356.868 1072,379.5C 1051.99,403.618 1026.49,412.451 995.5,406C 964.277,397.108 946.11,376.608 941,344.5C 936.657,316.013 944.824,291.846 965.5,272C 977.126,263.075 990.126,257.575 1004.5,255.5 Z"/></g>
<g><path style="opacity:0.984" fill="#000000" d="M 1283.5,198.5 C 1310.06,195.591 1335.06,200.425 1358.5,213C 1365.13,217.572 1371.3,222.738 1377,228.5C 1377.5,220.173 1377.67,211.84 1377.5,203.5C 1397.5,203.5 1417.5,203.5 1437.5,203.5C 1437.67,289.834 1437.5,376.167 1437,462.5C 1429.66,517.516 1399.16,552.349 1345.5,567C 1308.48,575.332 1272.15,572.999 1236.5,560C 1214.13,550.133 1195.8,535.3 1181.5,515.5C 1194.17,502.167 1207.17,489.167 1220.5,476.5C 1249.52,510.02 1285.85,521.853 1329.5,512C 1356.04,505.131 1371.87,488.298 1377,461.5C 1377.67,448.833 1377.67,436.167 1377,423.5C 1355.98,445.242 1330.15,455.575 1299.5,454.5C 1246.19,452.672 1209.03,427.339 1188,378.5C 1172.97,336.138 1175.97,295.138 1197,255.5C 1217.32,223.588 1246.16,204.588 1283.5,198.5 Z M 1301.5,254.5 C 1329.79,251.739 1352.62,261.406 1370,283.5C 1382.93,307.206 1384.93,331.873 1376,357.5C 1363.22,384.653 1341.72,398.319 1311.5,398.5C 1266.32,395.484 1242.32,371.317 1239.5,326C 1241.55,285.793 1262.22,261.959 1301.5,254.5 Z"/></g>
<g><path style="opacity:0.984" fill="#000000" d="M 1602.5,198.5 C 1658.45,193.401 1702.29,213.735 1734,259.5C 1752.78,291.272 1758.44,325.272 1751,361.5C 1739.61,407.221 1712.11,439.054 1668.5,457C 1609.42,476.023 1558.59,463.189 1516,418.5C 1483.03,375.055 1476.37,327.722 1496,276.5C 1518.01,232.078 1553.51,206.078 1602.5,198.5 Z M 1610.5,255.5 C 1648.84,253.389 1675.01,270.056 1689,305.5C 1696.36,331.359 1693.02,355.693 1679,378.5C 1655.54,406.329 1626.37,414.495 1591.5,403C 1565.67,391.487 1550.83,371.654 1547,343.5C 1542.54,310.619 1553.7,284.785 1580.5,266C 1590.03,260.769 1600.03,257.269 1610.5,255.5 Z"/></g>
<g><path style="opacity:0.983" fill="#000000" d="M 1923.5,198.5 C 1991.04,195.846 2035.54,226.512 2057,290.5C 2069.46,337.786 2061.46,381.119 2033,420.5C 1996.84,461.657 1952.34,474.49 1899.5,459C 1885.13,453.617 1872.63,445.451 1862,434.5C 1861.5,478.499 1861.33,522.499 1861.5,566.5C 1841.5,566.5 1821.5,566.5 1801.5,566.5C 1801.5,445.5 1801.5,324.5 1801.5,203.5C 1821.5,203.5 1841.5,203.5 1861.5,203.5C 1861.33,212.173 1861.5,220.84 1862,229.5C 1878.97,212.098 1899.47,201.765 1923.5,198.5 Z M 1920.5,254.5 C 1961.29,252.806 1987.46,271.473 1999,310.5C 2005.03,338.021 1999.7,363.021 1983,385.5C 1959.81,408.608 1932.64,414.775 1901.5,404C 1875.42,391.887 1860.92,371.387 1858,342.5C 1854.61,313.994 1863.11,289.828 1883.5,270C 1894.57,261.594 1906.9,256.428 1920.5,254.5 Z"/></g>
<g><path style="opacity:0.981" fill="#000000" d="M 2221.5,198.5 C 2253.42,194.076 2279.75,203.909 2300.5,228C 2287.47,240.696 2274.8,253.696 2262.5,267C 2259.18,266.735 2256.51,265.069 2254.5,262C 2232.11,250.299 2210.45,251.632 2189.5,266C 2178.68,276.147 2172.51,288.647 2171,303.5C 2170.5,355.832 2170.33,408.166 2170.5,460.5C 2150.5,460.5 2130.5,460.5 2110.5,460.5C 2110.5,374.833 2110.5,289.167 2110.5,203.5C 2130.5,203.5 2150.5,203.5 2170.5,203.5C 2170.33,211.507 2170.5,219.507 2171,227.5C 2183.77,210.698 2200.61,201.031 2221.5,198.5 Z"/></g>
<g><path style="opacity:0.984" fill="#000000" d="M 2572.5,198.5 C 2622.46,194.675 2657.96,215.341 2679,260.5C 2682.42,268.523 2684.76,276.857 2686,285.5C 2686.5,343.832 2686.67,402.166 2686.5,460.5C 2666.83,460.5 2647.17,460.5 2627.5,460.5C 2627.67,409.166 2627.5,357.832 2627,306.5C 2622.1,273.432 2602.93,255.765 2569.5,253.5C 2536.99,255.517 2517.82,272.517 2512,304.5C 2511.5,356.499 2511.33,408.499 2511.5,460.5C 2491.5,460.5 2471.5,460.5 2451.5,460.5C 2451.5,374.833 2451.5,289.167 2451.5,203.5C 2471.5,203.5 2491.5,203.5 2511.5,203.5C 2511.33,212.506 2511.5,221.506 2512,230.5C 2528.37,212.566 2548.54,201.9 2572.5,198.5 Z"/></g>
<g><path style="opacity:0.997" fill="#fef103" d="M -0.5,201.5 C 55.1667,201.5 110.833,201.5 166.5,201.5C 166.5,280.833 166.5,360.167 166.5,439.5C 245.833,439.5 325.167,439.5 404.5,439.5C 404.5,439.833 404.5,440.167 404.5,440.5C 404.5,495.833 404.5,551.167 404.5,606.5C 311.167,606.5 217.833,606.5 124.5,606.5C 71.7275,599.862 33.8942,572.529 11,524.5C 5.0584,510.256 1.22507,495.589 -0.5,480.5C -0.5,387.5 -0.5,294.5 -0.5,201.5 Z"/></g>
<g><path style="opacity:1" fill="#000001" d="M 166.5,201.5 C 166.833,201.5 167.167,201.5 167.5,201.5C 246.167,280.833 325.167,359.833 404.5,438.5C 404.5,438.833 404.5,439.167 404.5,439.5C 325.167,439.5 245.833,439.5 166.5,439.5C 166.5,360.167 166.5,280.833 166.5,201.5 Z"/></g>
<g><path style="opacity:1" fill="#00adef" d="M 167.5,201.5 C 246.5,201.5 325.5,201.5 404.5,201.5C 404.5,280.5 404.5,359.5 404.5,438.5C 325.167,359.833 246.167,280.833 167.5,201.5 Z"/></g>
<g><path style="opacity:0.975" fill="#000000" d="M 2327.5,203.5 C 2347.5,203.5 2367.5,203.5 2387.5,203.5C 2387.5,289.167 2387.5,374.833 2387.5,460.5C 2367.5,460.5 2347.5,460.5 2327.5,460.5C 2327.5,374.833 2327.5,289.167 2327.5,203.5 Z"/></g>
</svg>
